<svg xmlns="http://www.w3.org/2000/svg" xmlns:xlink="http://www.w3.org/1999/xlink" xmlns:inkscape="http://www.inkscape.org/namespaces/inkscape" version="1.1"  viewBox="420.79 440.27 1081.89 195.98">
<defs>
<clipPath id="clip_1">
<path transform="matrix(1,0,0,-1,0,1080)" d="M0 0H1920V1080H0Z"/>
</clipPath>
</defs>
<g clip-path="url(#clip_1)">

<path transform="matrix(1,0,0,-1,0,1080)" d="M1467.037 450.2721 1470.311 467.1231H434.0677L430.7937 450.2721Z" fill="#ff9c00"/>
<path transform="matrix(1,0,0,-1,0,1080)" d="M487.5266 593.8585H539.4296L544.4136 619.1345H492.4376 478.1966 463.6016L439.3936 494.5345H468.2296L477.2896 541.1705H521.6296L526.6126 566.4465H482.2006Z" fill="#004cbe"/>
<path transform="matrix(1,0,0,-1,0,1080)" d="M570.4896 564.756C573.9886 567.543 577.7566 568.939 581.7926 568.939 584.5206 568.939 586.6876 568.196 588.2896 566.714 589.8916 565.229 590.6926 563.301 590.6926 560.929 590.6926 557.369 589.2076 554.521 586.2426 552.385 583.2756 550.249 579.1226 549.181 573.7826 549.181 570.5786 549.181 567.2856 549.359 563.9036 549.715 562.9686 549.813 562.0256 549.934 561.0766 550.068 561.3926 551.075 561.7336 552.062 562.1236 553.008 564.1976 558.05 566.9886 561.966 570.4896 564.756M574.1386 529.423C588.3786 529.423 598.9696 532.449 605.9116 538.501 612.8536 544.553 616.3246 552.207 616.3246 561.463 616.3246 569.295 613.3566 575.881 607.4246 581.221 601.4896 586.561 593.2426 589.231 582.6826 589.231 575.5626 589.231 568.8876 587.835 562.6576 585.048 556.4276 582.258 550.9686 578.373 546.2816 573.389 541.5926 568.405 537.9156 562.559 535.2456 555.856 532.5756 549.15 531.2406 541.883 531.2406 534.051 531.2406 525.387 533.1096 517.942 536.8476 511.712 540.5856 505.482 545.6276 500.704 551.9776 497.383 558.3236 494.062 565.4746 492.399 573.4266 492.399 579.2396 492.399 584.6406 492.874 589.6246 493.823 594.6086 494.771 598.9976 496.017 602.7966 497.561L607.4246 521.413C602.6776 519.513 598.2576 518.089 594.1636 517.141 590.0696 516.19 585.9456 515.717 581.7926 515.717 573.3646 515.717 567.4636 517.11 564.0816 519.9 561.4236 522.09 559.8266 525.752 559.2576 530.838 560.7126 530.574 562.1956 530.335 563.7256 530.135 567.3436 529.659 570.8146 529.423 574.1386 529.423" fill="#004cbe"/>
<path transform="matrix(1,0,0,-1,0,1080)" d="M676.2186 521.0568C673.4286 518.6818 670.1356 517.4968 666.3396 517.4968H664.2036C660.1686 517.4968 656.8446 518.7708 654.2356 521.3238 651.6246 523.8738 650.3196 527.7018 650.3196 532.8048 650.3196 543.0088 652.5146 550.9888 656.9066 556.7458 661.2946 562.4998 667.2296 565.3788 674.7056 565.3788 677.9096 565.3788 681.0836 564.9338 684.2286 564.0438 685.4546 563.6968 686.6276 563.2378 687.7726 562.7198L682.3186 534.7448C681.0096 527.9738 678.9776 523.4058 676.2186 521.0568M700.1596 626.2548 692.2946 585.9118C690.3726 586.5978 688.3396 587.2018 686.1866 587.7178 681.9736 588.7248 677.6126 589.2308 673.1036 589.2308 663.1356 589.2308 654.2636 586.7668 646.4926 581.8438 638.7186 576.9178 632.6086 570.1548 628.1586 561.5518 623.7086 552.9468 621.4836 543.1288 621.4836 532.0928 621.4836 523.6658 622.9966 516.4878 626.0226 510.5548 629.0486 504.6198 633.0816 500.1118 638.1266 497.0268 643.1696 493.9428 648.7766 492.3988 654.9476 492.3988 660.2876 492.3988 665.2106 493.7648 669.7216 496.4928 673.6246 498.8548 677.1246 502.5348 680.2296 507.5208L677.7316 494.5348H703.0076L728.6396 626.2548Z" fill="#004cbe"/>
<path transform="matrix(1,0,0,-1,0,1080)" d="M764.5047 564.756C768.0037 567.543 771.7727 568.939 775.8077 568.939 778.5367 568.939 780.7027 568.196 782.3047 566.714 783.9067 565.229 784.7077 563.301 784.7077 560.929 784.7077 557.369 783.2227 554.521 780.2577 552.385 777.2907 550.249 773.1377 549.181 767.7977 549.181 764.5937 549.181 761.3007 549.359 757.9187 549.715 756.9837 549.813 756.0407 549.934 755.0917 550.068 755.4077 551.075 755.7497 552.062 756.1387 553.008 758.2137 558.05 761.0037 561.966 764.5047 564.756M768.1537 529.423C782.3937 529.423 792.9847 532.449 799.9267 538.501 806.8687 544.553 810.3397 552.207 810.3397 561.463 810.3397 569.295 807.3727 575.881 801.4397 581.221 795.5047 586.561 787.2577 589.231 776.6977 589.231 769.5777 589.231 762.9027 587.835 756.6727 585.048 750.4427 582.258 744.9837 578.373 740.2967 573.389 735.6077 568.405 731.9307 562.559 729.2607 555.856 726.5907 549.15 725.2557 541.883 725.2557 534.051 725.2557 525.387 727.1247 517.942 730.8627 511.712 734.6007 505.482 739.6437 500.704 745.9927 497.383 752.3397 494.062 759.4897 492.399 767.4417 492.399 773.2547 492.399 778.6557 492.874 783.6397 493.823 788.6237 494.771 793.0127 496.017 796.8117 497.561L801.4397 521.413C796.6927 519.513 792.2727 518.089 788.1787 517.141 784.0847 516.19 779.9607 515.717 775.8077 515.717 767.3807 515.717 761.4787 517.11 758.0967 519.9 755.4397 522.09 753.8417 525.752 753.2727 530.838 754.7277 530.574 756.2117 530.335 757.7407 530.135 761.3587 529.659 764.8307 529.423 768.1537 529.423" fill="#004cbe"/>
<path transform="matrix(1,0,0,-1,0,1080)" d="M882.6053 589.0529C881.7733 589.1699 880.8253 589.2309 879.7573 589.2309 875.6023 589.2309 871.3303 588.1019 866.9413 585.8489 862.5493 583.5929 858.6643 580.3589 855.2823 576.1479 854.5583 575.2459 853.8953 574.2889 853.2713 573.2979L855.9053 587.0949H830.0953L812.1173 494.5349H840.2413L850.9823 549.5809C852.2533 554.4819 853.9803 557.8859 856.1723 559.7719 858.7223 561.9659 862.3723 563.0649 867.1193 563.0649H880.4693L885.4533 588.5189C884.3853 588.7549 883.4343 588.9329 882.6053 589.0529" fill="#004cbe"/>
<path transform="matrix(1,0,0,-1,0,1080)" d="M924.0717 517.4967H921.9357C918.0197 517.4967 914.9627 518.7707 912.7687 521.3237 910.5717 523.8737 909.4757 527.7017 909.4757 532.8047 909.4757 543.0087 911.5807 550.9887 915.7947 556.7457 920.0057 562.4997 925.7327 565.3787 932.9717 565.3787 936.1757 565.3787 939.2017 564.9337 942.0497 564.0437 943.1067 563.7137 944.1407 563.2797 945.1647 562.7937L939.7007 534.7747C938.3937 527.9867 936.4207 523.4097 933.7727 521.0567 931.1027 518.6817 927.8677 517.4967 924.0717 517.4967M944.1857 587.7177C940.3867 588.7247 936.1137 589.2307 931.3697 589.2307 921.6377 589.2307 912.9467 586.7667 905.2927 581.8437 897.6387 576.9177 891.6137 570.1547 887.2257 561.5517 882.8337 552.9467 880.6397 543.1287 880.6397 532.0927 880.6397 523.6657 882.0917 516.4877 885.0007 510.5547 887.9067 504.6197 891.7927 500.1117 896.6597 497.0267 901.5247 493.9427 906.8637 492.3987 912.6797 492.3987 918.0197 492.3987 922.9147 493.7647 927.3647 496.4927 931.1497 498.8137 934.5437 502.4147 937.5567 507.2687L935.1077 494.5347H960.2057L978.3617 587.8067 952.8117 584.6717C950.0837 585.8917 947.2137 586.9127 944.1857 587.7177" fill="#004cbe"/>
<path transform="matrix(1,0,0,-1,0,1080)" d="M978.9012 494.5348H1007.381L1033.013 626.2548H1004.533Z" fill="#004cbe"/>
<path transform="matrix(1,0,0,-1,0,1080)" d="M1140.434 523.6378C1137.525 520.9678 1133.105 519.6328 1127.173 519.6328H1101.789L1106.596 544.3748H1130.199C1139.928 544.3748 1144.795 540.8148 1144.795 533.6948 1144.795 529.6588 1143.34 526.3078 1140.434 523.6378M1135.005 594.0368C1144.617 594.0368 1149.423 590.4158 1149.423 583.1788 1149.423 579.1428 1147.968 575.8198 1145.062 573.2108 1142.153 570.5988 1137.791 569.2948 1131.979 569.2948H1111.437L1116.245 594.0368ZM1172.83 570.9858C1176.568 576.3838 1178.437 582.4668 1178.437 589.2308 1178.437 595.8748 1176.684 601.4238 1173.186 605.8738 1169.684 610.3238 1165.026 613.6448 1159.213 615.8418 1153.397 618.0358 1147.047 619.1348 1140.166 619.1348H1121.121 1107.059 1092.463L1068.255 494.5348H1082.851 1096.913 1124.503C1134.707 494.5348 1143.488 496.1648 1150.847 499.4298 1158.203 502.6918 1163.869 507.2308 1167.846 513.0468 1171.82 518.8598 1173.809 525.4458 1173.809 532.8048 1173.809 542.6538 1169.831 549.8038 1161.883 554.2538 1159.598 555.5328 1157.096 556.6208 1154.39 557.5328 1155.025 557.7688 1155.665 557.9998 1156.276 558.2588 1163.574 561.3428 1169.092 565.5848 1172.83 570.9858" fill="#004cbe"/>
<path transform="matrix(1,0,0,-1,0,1080)" d="M1226.496 517.4967H1224.36C1220.444 517.4967 1217.388 518.7707 1215.193 521.3237 1212.996 523.8737 1211.9 527.7017 1211.9 532.8047 1211.9 543.0087 1214.005 550.9887 1218.219 556.7457 1222.43 562.4997 1228.156 565.3787 1235.396 565.3787 1238.6 565.3787 1241.626 564.9337 1244.474 564.0437 1245.53 563.7137 1246.565 563.2797 1247.589 562.7937L1242.122 534.7597C1240.814 527.9797 1238.843 523.4077 1236.197 521.0567 1233.527 518.6817 1230.292 517.4967 1226.496 517.4967M1246.61 587.7177C1242.81 588.7247 1238.539 589.2307 1233.794 589.2307 1224.062 589.2307 1215.371 586.7667 1207.717 581.8437 1200.063 576.9177 1194.039 570.1547 1189.65 561.5517 1185.259 552.9467 1183.064 543.1287 1183.064 532.0927 1183.064 523.6657 1184.516 516.4877 1187.425 510.5547 1190.331 504.6197 1194.217 500.1117 1199.084 497.0267 1203.949 493.9427 1209.288 492.3987 1215.104 492.3987 1220.444 492.3987 1225.339 493.7647 1229.789 496.4927 1233.574 498.8137 1236.968 502.4147 1239.981 507.2687L1237.532 494.5347H1262.63L1280.786 587.8067 1255.236 584.6717C1252.509 585.8917 1249.638 586.9127 1246.61 587.7177" fill="#004cbe"/>
<path transform="matrix(1,0,0,-1,0,1080)" d="M1368.366 584.2467C1363.618 587.5677 1357.922 589.2307 1351.278 589.2307 1345.699 589.2307 1340.359 587.8657 1335.258 585.1367 1330.976 582.8447 1327.159 579.3267 1323.798 574.6147L1326.18 587.0947H1300.014L1282.036 494.5347H1310.516L1321.263 549.6117C1322.527 554.5037 1324.223 557.9287 1326.358 559.8607 1328.85 562.1137 1332.29 563.2427 1336.682 563.2427H1339.352C1343.504 563.2427 1346.589 561.8467 1348.608 559.0597 1350.624 556.2697 1351.158 552.2657 1350.21 547.0447L1340.064 494.5347H1368.544L1379.046 548.4687C1380.706 556.8927 1380.529 564.1327 1378.512 570.1847 1376.493 576.2367 1373.111 580.9227 1368.366 584.2467" fill="#004cbe"/>
<path transform="matrix(1,0,0,-1,0,1080)" d="M1492.679 587.0948H1460.817L1425.8 552.4128 1440.169 626.2548H1411.689L1386.057 494.5348H1414.537L1418.891 516.9108 1432.994 531.2948 1446.043 494.5348H1475.591L1455.232 549.7948Z" fill="#004cbe"/>
</g>
</svg>
